<svg width="40" height="22" viewBox="0 0 40 22" fill="none" xmlns="http://www.w3.org/2000/svg">
<path d="M21.2977 20.1253C21.4332 20.4351 21.3993 20.7497 21.196 21.0692C20.9927 21.3886 20.7169 21.5483 20.3684 21.5483H1.02713C0.852885 21.5483 0.68832 21.5048 0.533435 21.4177C0.378551 21.3305 0.262387 21.2192 0.184945 21.0837C-0.0280219 20.7739 -0.0570628 20.4545 0.0978219 20.1253L0.99809 18.0054C1.07553 17.8117 1.20138 17.6569 1.37562 17.5407C1.54987 17.4245 1.73379 17.3665 1.9274 17.3665H15.4605L10.6977 5.98242L6.80627 15.2755C6.72882 15.4691 6.60782 15.6192 6.44326 15.7256C6.27869 15.8321 6.08993 15.8854 5.87696 15.8854H3.43752C3.06967 15.8854 2.77926 15.7305 2.5663 15.4207C2.48885 15.2852 2.44045 15.1303 2.42109 14.9561C2.40173 14.7818 2.42109 14.6172 2.47917 14.4624L8.37448 0.638899C8.45192 0.445293 8.57292 0.290409 8.73749 0.174245C8.90205 0.0580816 9.09082 0 9.30378 0H12.0917C12.3047 0 12.4934 0.0580816 12.658 0.174245C12.8226 0.290409 12.9436 0.445293 13.021 0.638899L21.2977 20.1253ZM37.6767 8.88651C37.9671 8.88651 38.214 8.98816 38.4173 9.19144C38.6206 9.39473 38.7222 9.64158 38.7222 9.93198V12.081C38.7222 12.3521 38.6206 12.5892 38.4173 12.7925C38.214 12.9958 37.9671 13.0974 37.6767 13.0974H28.1223V20.5319C28.1223 20.803 28.0255 21.0401 27.8319 21.2434C27.6383 21.4467 27.3963 21.5483 27.1058 21.5483H24.8987C24.6277 21.5483 24.3905 21.4467 24.1872 21.2434C23.984 21.0401 23.8823 20.803 23.8823 20.5319V9.93198C23.8823 9.64158 23.984 9.39473 24.1872 9.19144C24.3905 8.98816 24.6277 8.88651 24.8987 8.88651H37.6767ZM38.9836 0C39.2546 0 39.4918 0.101643 39.6951 0.304929C39.8984 0.508216 40 0.745383 40 1.01643V3.13642C40 3.42682 39.8984 3.67367 39.6951 3.87696C39.4918 4.08024 39.2546 4.18189 38.9836 4.18189H24.8987C24.6277 4.18189 24.3905 4.08024 24.1872 3.87696C23.984 3.67367 23.8823 3.42682 23.8823 3.13642V1.01643C23.8823 0.745383 23.984 0.508216 24.1872 0.304929C24.3905 0.101643 24.6277 0 24.8987 0H38.9836Z" fill="url(#paint0_linear_66_111)"/>
<defs>
<linearGradient id="paint0_linear_66_111" x1="23.5" y1="0.999999" x2="21" y2="22.5" gradientUnits="userSpaceOnUse">
<stop offset="0.0450607" stop-color="#C27713"/>
<stop offset="1" stop-color="#F3CE62"/>
</linearGradient>
</defs>
</svg>
